# File created by Blade
# Date/Time:  Thu Jan 22 18:25:17 2015
#---------------------------------------------------------
:version 1.10
:name HOM
:units
  mass 1.0
  length 1.000000
  angle deg
:documentation
     Acclaim Skeleton File
:root
   axis xyz
   order TX TY TZ RX RY RZ
   position 0.000000 0.000000 0.000000
   orientation 0 0 0
:bonedata
   begin
      id 1
      name RightUpLeg_dum
      direction -1.000000 0.000000 0.000000
      length 4.478084
      axis 0.0 0.0 0.0 xyz
   end
   begin
      id 2
      name LeftUpLeg_dum
      direction 1.000000 0.000000 0.000000
      length 4.478084
      axis 0.0 0.0 0.0 xyz
   end
   begin
      id 3
      name Spine_dum
      direction 0.000000 1.000000 0.000000
      length 6.068208
      axis 0.0 0.0 0.0 xyz
   end
   begin
      id 4
      name RightUpLeg
      direction 0.000000 -1.000000 0.000000
      length 16.405774
      axis 0.0 0.0 0.0 xyz
      dof rx ry rz
   end
   begin
      id 5
      name RightLeg
      direction 0.000000 -1.000000 0.000000
      length 14.644143
      axis 0.0 0.0 0.0 xyz
      dof rx ry rz
   end
   begin
      id 6
      name RightFoot
      direction 0.000000 -0.258819 0.965926
      length 5.806150
      axis 15.0 0.0 0.0 xyz
      dof rx ry rz
   end
   begin
      id 7
      name RightToeBase
      direction 0.000000 0.000000 1.000000
      length 2.952750
      axis 0.0 0.0 0.0 xyz
      dof rx ry rz
   end
   begin
      id 8
      name LeftUpLeg
      direction 0.000000 -1.000000 0.000000
      length 16.405774
      axis 0.0 0.0 0.0 xyz
      dof rx ry rz
   end
   begin
      id 9
      name LeftLeg
      direction 0.000000 -1.000000 0.000000
      length 14.644143
      axis 0.0 0.0 0.0 xyz
      dof rx ry rz
   end
   begin
      id 10
      name LeftFoot
      direction 0.000000 -0.258819 0.965926
      length 5.806150
      axis 15.0 0.0 0.0 xyz
      dof rx ry rz
   end
   begin
      id 11
      name LeftToeBase
      direction 0.000000 0.000000 1.000000
      length 2.952750
      axis 0.0 0.0 0.0 xyz
      dof rx ry rz
   end
   begin
      id 12
      name Spine
      direction 0.000000 1.000000 0.000000
      length 0.000000
      axis 0.0 0.0 0.0 xyz
      dof rx ry rz
   end
   begin
      id 13
      name Spine_dum1
      direction 0.000000 1.000000 0.000000
      length 10.013923
      axis 0.0 0.0 0.0 xyz
   end
   begin
      id 14
      name Spine_dum2
      direction 0.000000 1.000000 0.000000
      length 10.013923
      axis 0.0 0.0 0.0 xyz
   end
   begin
      id 15
      name Spine_dum3
      direction 0.000000 1.000000 0.000000
      length 15.777476
      axis 0.0 0.0 0.0 xyz
   end
   begin
      id 16
      name RightShoulder
      direction -1.000000 0.000000 0.000000
      length 7.190220
      axis 0.0 0.0 90.0 xyz
      dof rx ry rz
   end
   begin
      id 17
      name RightArm
      direction -1.000000 0.000000 0.000000
      length 10.177469
      axis 0.0 0.0 90.0 xyz
      dof rx ry rz
   end
   begin
      id 18
      name RightForeArm
      direction -1.000000 0.000000 0.000000
      length 8.392114
      axis 0.0 0.0 90.0 xyz
      dof ry rz rx
   end
   begin
      id 19
      name RightHand
      direction -1.000000 0.000000 0.000000
      length 0.000000
      axis 0.0 0.0 90.0 xyz
      dof rx ry rz
   end
   begin
      id 20
      name RightHand_dum1
      direction -1.000000 0.000000 0.000000
      length 3.937000
      axis 0.0 0.0 90.0 xyz
   end
   begin
      id 21
      name RightHand_dum2
      direction 0.000000 0.000000 0.000000
      length 0.000000
      axis 0.0 0.0 90.0 xyz
   end
   begin
      id 22
      name RightHandThumb1
      direction 0.000000 0.000000 1.000000
      length 3.937000
      axis 0.0 0.0 90.0 xyz
      dof rx rz ry
   end
   begin
      id 23
      name LeftShoulder
      direction 1.000000 0.000000 0.000000
      length 7.190220
      axis 0.0 0.0 -90.0 xyz
      dof rx ry rz
   end
   begin
      id 24
      name LeftArm
      direction 1.000000 0.000000 0.000000
      length 10.177469
      axis 0.0 0.0 -90.0 xyz
      dof rx ry rz
   end
   begin
      id 25
      name LeftForeArm
      direction 1.000000 0.000000 0.000000
      length 8.392114
      axis 0.0 0.0 -90.0 xyz
      dof ry rz rx
   end
   begin
      id 26
      name LeftHand
      direction 1.000000 0.000000 0.000000
      length 0.000000
      axis 0.0 0.0 -90.0 xyz
      dof rx ry rz
   end
   begin
      id 27
      name LeftHand_dum1
      direction 1.000000 0.000000 0.000000
      length 3.937000
      axis 0.0 0.0 -90.0 xyz
   end
   begin
      id 28
      name LeftHand_dum2
      direction 0.000000 0.000000 0.000000
      length 0.000000
      axis 0.0 0.0 -90.0 xyz
   end
   begin
      id 29
      name LeftHandThumb1
      direction 0.000000 0.000000 1.000000
      length 3.937000
      axis 0.0 0.0 -90.0 xyz
      dof rx rz ry
   end
   begin
      id 30
      name Head
      direction 0.000000 1.000000 0.000000
      length 4.527550
      axis 0.0 0.0 0.0 xyz
      dof rx ry rz
   end
:hierarchy
   begin
      root RightUpLeg_dum LeftUpLeg_dum Spine_dum
      RightUpLeg_dum RightUpLeg
      LeftUpLeg_dum LeftUpLeg
      Spine_dum Spine
      RightUpLeg RightLeg
      RightLeg RightFoot
      RightFoot RightToeBase
      LeftUpLeg LeftLeg
      LeftLeg LeftFoot
      LeftFoot LeftToeBase
      Spine Spine_dum1 Spine_dum2 Spine_dum3
      Spine_dum1 RightShoulder
      Spine_dum2 LeftShoulder
      Spine_dum3 Head
      RightShoulder RightArm
      RightArm RightForeArm
      RightForeArm RightHand
      RightHand RightHand_dum1 RightHand_dum2
      RightHand_dum2 RightHandThumb1
      LeftShoulder LeftArm
      LeftArm LeftForeArm
      LeftForeArm LeftHand
      LeftHand LeftHand_dum1 LeftHand_dum2
      LeftHand_dum2 LeftHandThumb1
   end

# File created by Blade
# Date/Time:  Thu Jan 22 18:25:10 2015
# Frame Rate: 120.000 fps
#------------------------------------------------------
:FULLY-SPECIFIED
:DEGREES
223
root -2.914761 33.097853 -0.415372 9.475497 -3.427083 2.211198
RightUpLeg -3.407545 -3.438866 -1.534899
RightLeg 0.084802 -0.000000 -0.000000
RightFoot -11.646634 -3.655162 2.927636
RightToeBase 5.899401 -0.000000 -0.000000
LeftUpLeg -3.616047 3.947773 0.778927
LeftLeg 2.664827 -0.000000 -0.000000
LeftFoot -12.306934 3.696593 -9.338791
LeftToeBase 8.716296 -0.000000 -0.000000
Spine -11.151890 -1.965535 -0.730794
RightShoulder -17.986678 -14.489842 -27.214038
RightArm 21.687656 34.708520 38.057365
RightForeArm -5.526752 -0.000000 11.689462
RightHand 8.366939 -0.000000 4.680046
RightHandThumb1 -24.326973 -0.000000 -32.862282
LeftShoulder -23.014457 6.764456 31.482833
LeftArm 17.072469 -30.583880 -32.901473
LeftForeArm 26.883510 -0.000000 2.499587
LeftHand -4.429961 -0.000000 -8.081699
LeftHandThumb1 -26.253704 0.000000 33.147579
Head 1.946336 4.113360 -0.182208
224
root -2.910384 33.097896 -0.409896 9.406095 -3.470367 2.212316
RightUpLeg -3.350837 -3.400498 -1.558417
RightLeg 0.117528 -0.000000 -0.000000
RightFoot -11.658585 -3.628950 2.940135
RightToeBase 5.908566 -0.000000 -0.000000
LeftUpLeg -3.542841 3.937625 0.770024
LeftLeg 2.689303 -0.000000 -0.000000
LeftFoot -12.339267 3.748323 -9.349696
LeftToeBase 8.710362 -0.000000 -0.000000
Spine -11.176028 -1.933845 -0.696692
RightShoulder -17.914547 -14.179908 -27.545164
RightArm 21.695182 35.163674 37.615675
RightForeArm -4.818067 -0.000000 11.994319
RightHand 8.579049 -0.000000 4.323706
RightHandThumb1 -24.326973 -0.000000 -32.862282
LeftShoulder -22.945255 6.643100 31.571331
LeftArm 17.215712 -30.719517 -32.591397
LeftForeArm 26.487183 -0.000000 2.685140
LeftHand -4.387957 -0.000000 -7.757083
LeftHandThumb1 -26.253704 0.000000 33.147579
Head 2.198749 4.152091 -0.140684
225
root -2.905935 33.097598 -0.404568 9.339623 -3.508160 2.215504
RightUpLeg -3.288172 -3.373163 -1.577153
RightLeg 0.129037 -0.000000 -0.000000
RightFoot -11.666975 -3.627600 2.932034
RightToeBase 5.857856 -0.000000 -0.000000
LeftUpLeg -3.474681 3.936124 0.757251
LeftLeg 2.717309 -0.000000 -0.000000
LeftFoot -12.369242 3.785790 -9.364294
LeftToeBase 8.747594 -0.000000 -0.000000
Spine -11.198422 -1.925867 -0.655578
RightShoulder -17.845493 -13.803626 -27.910315
RightArm 21.730043 35.650017 37.159072
RightForeArm -4.254701 -0.000000 12.258116
RightHand 8.702856 -0.000000 3.892767
RightHandThumb1 -24.326973 -0.000000 -32.862282
LeftShoulder -22.883864 6.495447 31.686032
LeftArm 17.303322 -30.788927 -32.240668
LeftForeArm 25.874636 -0.000000 2.989047
LeftHand -4.512326 -0.000000 -7.532047
LeftHandThumb1 -26.253704 0.000000 33.147579
Head 2.425269 4.217438 -0.100770
226
root -2.901413 33.097593 -0.399510 9.269372 -3.541189 2.218523
RightUpLeg -3.229760 -3.326955 -1.598319
RightLeg 0.160983 -0.000000 -0.000000
RightFoot -11.685522 -3.654554 2.901706
RightToeBase 5.855589 -0.000000 -0.000000
LeftUpLeg -3.408991 3.961822 0.743898
LeftLeg 2.754325 -0.000000 -0.000000
LeftFoot -12.390824 3.793827 -9.331108
LeftToeBase 8.745070 -0.000000 -0.000000
Spine -11.220924 -1.908682 -0.614853
RightShoulder -17.771501 -13.411263 -28.300107
RightArm 21.773083 36.274679 36.739930
RightForeArm -3.814089 -0.000000 12.578342
RightHand 8.901402 0.000000 3.516179
RightHandThumb1 -24.326973 -0.000000 -32.862282
LeftShoulder -22.799083 6.270919 31.823794
LeftArm 17.346681 -30.836486 -31.844478
LeftForeArm 25.444390 0.000000 3.317600
LeftHand -4.512971 -0.000000 -7.250204
LeftHandThumb1 -26.253704 0.000000 33.147579
Head 2.660105 4.259188 -0.048091
227
root -2.897509 33.097367 -0.394177 9.202181 -3.562862 2.223815
RightUpLeg -3.172832 -3.305383 -1.615195
RightLeg 0.193579 -0.000000 -0.000000
RightFoot -11.714332 -3.663969 2.907518
RightToeBase 5.880441 -0.000000 -0.000000
LeftUpLeg -3.349833 3.970157 0.734516
LeftLeg 2.798481 -0.000000 -0.000000
LeftFoot -12.419213 3.799076 -9.321315
LeftToeBase 8.750589 -0.000000 -0.000000
Spine -11.257322 -1.905115 -0.568680
RightShoulder -17.646530 -12.927605 -28.744859
RightArm 21.667091 36.791905 36.172359
RightForeArm -3.505941 0.000000 12.896523
RightHand 9.258460 -0.000000 3.198784
RightHandThumb1 -24.326973 -0.000000 -32.862282
LeftShoulder -22.699842 6.065921 31.961335
LeftArm 17.355589 -30.725147 -31.374707
LeftForeArm 24.897323 0.000000 3.715900
LeftHand -4.744395 -0.000000 -7.042904
LeftHandThumb1 -26.253704 0.000000 33.147579
Head 2.930269 4.289145 -0.033267
228
root -2.892829 33.097257 -0.388796 9.123733 -3.569370 2.231695
RightUpLeg -3.101496 -3.304306 -1.634787
RightLeg 0.222870 -0.000000 -0.000000
RightFoot -11.733786 -3.674398 2.890514
RightToeBase 5.852894 -0.000000 -0.000000
LeftUpLeg -3.276105 3.967237 0.721722
LeftLeg 2.824784 -0.000000 -0.000000
LeftFoot -12.434467 3.814417 -9.330303
LeftToeBase 8.751288 -0.000000 -0.000000
Spine -11.278282 -1.892528 -0.522005
RightShoulder -17.577049 -12.480310 -29.190592
RightArm 21.723928 37.435497 35.689066
RightForeArm -3.136802 -0.000000 13.191540
RightHand 9.367034 -0.000000 2.805602
RightHandThumb1 -24.326973 -0.000000 -32.862282
LeftShoulder -22.592915 5.888399 32.048129
LeftArm 17.502027 -30.992614 -31.009011
LeftForeArm 24.574062 0.000000 4.074566
LeftHand -4.523650 -0.000000 -6.824764
LeftHandThumb1 -26.253704 0.000000 33.147579
Head 3.169965 4.348875 0.029504
229
root -2.888098 33.097701 -0.383560 9.050877 -3.566812 2.243750
RightUpLeg -3.034476 -3.310283 -1.658793
RightLeg 0.255316 -0.000000 -0.000000
RightFoot -11.760982 -3.667247 2.913456
RightToeBase 5.890295 -0.000000 -0.000000
LeftUpLeg -3.215622 3.987479 0.707316
LeftLeg 2.867530 -0.000000 -0.000000
LeftFoot -12.445424 3.775914 -9.336379
LeftToeBase 8.739344 -0.000000 -0.000000
Spine -11.304852 -1.882936 -0.486880
RightShoulder -17.519513 -11.961071 -29.667999
RightArm 21.758361 38.004560 35.169244
RightForeArm -2.598428 0.000000 13.456338
RightHand 9.591997 0.000000 2.266145
RightHandThumb1 -24.326973 -0.000000 -32.862282
LeftShoulder -22.483606 5.686066 32.192497
LeftArm 17.637838 -31.224127 -30.689458
LeftForeArm 24.157940 -0.000000 4.537008
LeftHand -4.465786 -0.000000 -6.769432
LeftHandThumb1 -26.253704 0.000000 33.147579
Head 3.411584 4.368026 0.092950
230
root -2.883402 33.097960 -0.378104 8.979792 -3.551597 2.250843
RightUpLeg -2.964024 -3.343502 -1.674420
RightLeg 0.279178 -0.000000 -0.000000
RightFoot -11.783162 -3.658434 2.894091
RightToeBase 5.890056 -0.000000 -0.000000
LeftUpLeg -3.157471 3.983011 0.700612
LeftLeg 2.906601 -0.000000 -0.000000
LeftFoot -12.457812 3.757125 -9.317504
LeftToeBase 8.778543 -0.000000 -0.000000
Spine -11.339423 -1.872861 -0.442536
RightShoulder -17.456737 -11.469570 -30.153358
RightArm 21.775562 38.613297 34.622035
RightForeArm -2.197694 -0.000000 13.815736
RightHand 9.659813 -0.000000 1.814112
RightHandThumb1 -24.326973 -0.000000 -32.862282
LeftShoulder -22.397081 5.443830 32.375873
LeftArm 17.803721 -31.473670 -30.430059
LeftForeArm 23.765656 -0.000000 5.089859
LeftHand -4.527446 -0.000000 -6.828582
LeftHandThumb1 -26.253704 0.000000 33.147579
Head 3.671541 4.387937 0.113670
231
root -2.877495 33.098486 -0.371565 8.897513 -3.523594 2.263898
RightUpLeg -2.874367 -3.336013 -1.700875
RightLeg 0.296228 -0.000000 -0.000000
RightFoot -11.800664 -3.692414 2.901802
RightToeBase 5.891910 -0.000000 -0.000000
LeftUpLeg -3.086669 3.989077 0.686587
LeftLeg 2.941284 -0.000000 -0.000000
LeftFoot -12.457898 3.721905 -9.320706
LeftToeBase 8.731576 -0.000000 -0.000000
Spine -11.370292 -1.878876 -0.382234
RightShoulder -17.407757 -10.957167 -30.654887
RightArm 21.845761 39.139790 34.014739
RightForeArm -1.633567 -0.000000 14.127157
RightHand 9.751089 -0.000000 1.411418
RightHandThumb1 -24.326973 -0.000000 -32.862282
LeftShoulder -22.266450 5.198781 32.488684
LeftArm 17.905217 -31.686445 -30.035243
LeftForeArm 23.269784 -0.000000 5.701013
LeftHand -4.499406 -0.000000 -7.026274
LeftHandThumb1 -26.253704 0.000000 33.147579
Head 3.937182 4.466935 0.143868
232
root -2.870533 33.099180 -0.366001 8.822293 -3.476345 2.280969
RightUpLeg -2.790627 -3.374360 -1.726226
RightLeg 0.313497 -0.000000 -0.000000
RightFoot -11.819309 -3.704046 2.931470
RightToeBase 5.867588 -0.000000 -0.000000
LeftUpLeg -3.027895 3.975128 0.668672
LeftLeg 2.977759 -0.000000 -0.000000
LeftFoot -12.455412 3.682333 -9.304826
LeftToeBase 8.712647 -0.000000 -0.000000
Spine -11.410717 -1.883826 -0.323591
RightShoulder -17.339923 -10.469206 -31.196014
RightArm 22.009858 40.010184 33.622916
RightForeArm -1.295564 0.000000 14.510060
RightHand 9.847454 0.000000 1.038074
RightHandThumb1 -24.326973 -0.000000 -32.862282
LeftShoulder -22.121252 4.953443 32.633645
LeftArm 18.023590 -31.906788 -29.715871
LeftForeArm 22.756433 -0.000000 6.379515
LeftHand -4.461890 -0.000000 -7.046091
LeftHandThumb1 -26.253704 0.000000 33.147579
Head 4.204666 4.470172 0.150312
233
root -2.863526 33.099658 -0.358558 8.727155 -3.439955 2.299168
RightUpLeg -2.693514 -3.396090 -1.757137
RightLeg 0.349849 -0.000000 -0.000000
RightFoot -11.865021 -3.720371 2.947281
RightToeBase 5.913869 -0.000000 -0.000000
LeftUpLeg -2.939444 3.995405 0.647370
LeftLeg 2.998946 -0.000000 -0.000000
LeftFoot -12.445885 3.634748 -9.293097
LeftToeBase 8.695196 -0.000000 -0.000000
Spine -11.435398 -1.870519 -0.280592
RightShoulder -17.239169 -9.772525 -31.781790
RightArm 21.779897 40.308008 32.784078
RightForeArm -0.475966 -0.000000 14.915990
RightHand 10.189861 -0.000000 0.212028
RightHandThumb1 -24.326973 -0.000000 -32.862282
LeftShoulder -21.992697 4.651943 32.842917
LeftArm 18.188149 -32.118025 -29.469592
LeftForeArm 22.262981 -0.000000 7.116051
LeftHand -4.554423 -0.000000 -7.130021
LeftHandThumb1 -26.253704 0.000000 33.147579
Head 4.498860 4.438937 0.153232
234
root -2.857069 33.100412 -0.352425 8.640390 -3.388495 2.322610
RightUpLeg -2.602121 -3.441724 -1.789895
RightLeg 0.376172 -0.000000 -0.000000
RightFoot -11.879711 -3.730913 2.948449
RightToeBase 5.847075 -0.000000 -0.000000
LeftUpLeg -2.862130 3.980067 0.625950
LeftLeg 3.019983 -0.000000 -0.000000
LeftFoot -12.434677 3.592040 -9.288886
LeftToeBase 8.723320 -0.000000 -0.000000
Spine -11.465850 -1.878317 -0.226968
RightShoulder -17.219309 -9.314508 -32.301047
RightArm 22.015721 41.225106 32.351807
RightForeArm -0.229140 -0.000000 15.284352
RightHand 10.534948 -0.000000 0.077054
RightHandThumb1 -24.326973 -0.000000 -32.862282
LeftShoulder -21.864082 4.369025 33.001566
LeftArm 18.302561 -32.340321 -29.168632
LeftForeArm 21.807343 -0.000000 7.962862
LeftHand -4.443295 -0.000000 -7.170469
LeftHandThumb1 -26.253704 0.000000 33.147579
Head 4.807611 4.479610 0.192596
